<svg xmlns="http://www.w3.org/2000/svg" viewBox="0 0 160 40" width="160" height="40" role="img" aria-label="Cali Shop Logo">
  <defs>
    <linearGradient id="grad" x1="0" y1="0" x2="1" y2="1">
      <stop offset="0%" stop-color="#ff2849" />
      <stop offset="100%" stop-color="#ff7f18" />
    </linearGradient>
  </defs>
  <!-- Icon: stylized C inside rounded square -->
  <rect x="4" y="4" width="32" height="32" rx="8" fill="url(#grad)" />
  <path d="M28 14c-1.6-2.9-4.2-4.4-7.4-4.4-5.2 0-9.4 4.3-9.4 10.4 0 6.1 4.2 10.4 9.4 10.4 3.2 0 5.7-1.5 7.4-4.4l-5.4-2.2c-.8 1.1-1.7 1.6-2.9 1.6-2.2 0-3.6-2-3.6-5.4 0-3.4 1.4-5.4 3.6-5.4 1.2 0 2.1.5 2.9 1.6L28 14Z" fill="#fff" />
  <!-- Wordmark -->
  <text x="46" y="27" font-family="'Segoe UI', Arial, sans-serif" font-size="18" font-weight="700" fill="#fff" letter-spacing="1">CALI SHOP</text>
</svg>
